<svg version="1.2" xmlns="http://www.w3.org/2000/svg" viewBox="0 0 240 240" width="240" height="240">
	<title>6039349-ai-svg</title>
	<defs>
		<linearGradient id="g1" x2="1" gradientUnits="userSpaceOnUse" gradientTransform="matrix(-19.944,-159.553,228.604,-28.575,-385.155,270.81)">
			<stop offset="0" stop-color="#2a002a"/>
			<stop offset=".358" stop-color="#7f0078"/>
			<stop offset="1" stop-color="#ff3fea"/>
		</linearGradient>
		<linearGradient id="g2" x2="1" gradientUnits="userSpaceOnUse" gradientTransform="matrix(88.39,31.9,-22.465,62.248,-399.729,-37.704)">
			<stop offset="0" stop-color="#2a002a"/>
			<stop offset="1" stop-color="#ffffff"/>
		</linearGradient>
		<linearGradient id="g3" x2="1" gradientUnits="userSpaceOnUse" gradientTransform="matrix(73.861,-50.061,23.763,35.061,-344.54,82.272)">
			<stop offset="0" stop-color="#2a002a"/>
			<stop offset="1" stop-color="#ffffff"/>
		</linearGradient>
		<linearGradient id="g4" x2="1" gradientUnits="userSpaceOnUse" gradientTransform="matrix(238.056,-238.056,177.659,177.659,-534.159,597.423)">
			<stop offset="0" stop-color="#075799"/>
			<stop offset=".357" stop-color="#0d83d3"/>
			<stop offset="1" stop-color="#13d6d6"/>
		</linearGradient>
		<linearGradient id="g5" x2="1" gradientUnits="userSpaceOnUse" gradientTransform="matrix(264.348,-264.348,228.538,228.538,-448.646,685.23)">
			<stop offset="0" stop-color="#075799"/>
			<stop offset=".357" stop-color="#0d83d3"/>
			<stop offset="1" stop-color="#13d6d6"/>
		</linearGradient>
		<linearGradient id="g6" x2="1" gradientUnits="userSpaceOnUse" gradientTransform="matrix(129.314,-148.627,103.292,89.87,-479.284,647.582)">
			<stop offset="0" stop-color="#2a002a"/>
			<stop offset=".358" stop-color="#7f0078"/>
			<stop offset="1" stop-color="#ff3fea"/>
		</linearGradient>
		<linearGradient id="g7" x2="1" gradientUnits="userSpaceOnUse" gradientTransform="matrix(147.633,-169.683,175.405,152.612,-419.908,711.821)">
			<stop offset="0" stop-color="#2a002a"/>
			<stop offset=".358" stop-color="#7f0078"/>
			<stop offset="1" stop-color="#ff3fea"/>
		</linearGradient>
		<linearGradient id="g8" x2="1" gradientUnits="userSpaceOnUse" gradientTransform="matrix(238.055,-238.055,156.766,156.766,-466.214,665.367)">
			<stop offset="0" stop-color="#075799"/>
			<stop offset=".357" stop-color="#0d83d3"/>
			<stop offset="1" stop-color="#13d6d6"/>
		</linearGradient>
		<linearGradient id="g9" x2="1" gradientUnits="userSpaceOnUse" gradientTransform="matrix(-39.515,-61.598,76.352,-48.98,-442.283,745.402)">
			<stop offset="0" stop-color="#2a002a"/>
			<stop offset="1" stop-color="#ffffff"/>
		</linearGradient>
		<linearGradient id="g10" x2="1" gradientUnits="userSpaceOnUse" gradientTransform="matrix(-42.818,-66.745,94.769,-60.796,-326.5,675.31)">
			<stop offset="0" stop-color="#2a002a"/>
			<stop offset="1" stop-color="#ffffff"/>
		</linearGradient>
		<linearGradient id="g11" x2="1" gradientUnits="userSpaceOnUse" gradientTransform="matrix(-44.11,-68.76,102.619,-65.831,-227.408,613.664)">
			<stop offset="0" stop-color="#2a002a"/>
			<stop offset="1" stop-color="#ffffff"/>
		</linearGradient>
		<linearGradient id="g12" x2="1" gradientUnits="userSpaceOnUse" gradientTransform="matrix(296.429,-296.429,360.865,360.865,-429.513,751.639)">
			<stop offset="0" stop-color="#075799"/>
			<stop offset=".357" stop-color="#0d83d3"/>
			<stop offset="1" stop-color="#13d6d6"/>
		</linearGradient>
		<linearGradient id="g13" x2="1" gradientUnits="userSpaceOnUse" gradientTransform="matrix(179.447,-179.447,102.283,102.283,-923.124,136.704)">
			<stop offset="0" stop-color="#075799"/>
			<stop offset=".357" stop-color="#0d83d3"/>
			<stop offset="1" stop-color="#13d6d6"/>
		</linearGradient>
		<linearGradient id="g14" x2="1" gradientUnits="userSpaceOnUse" gradientTransform="matrix(209.516,-209.516,35.752,35.752,-913.965,190.997)">
			<stop offset="0" stop-color="#075799"/>
			<stop offset=".357" stop-color="#0d83d3"/>
			<stop offset="1" stop-color="#13d6d6"/>
		</linearGradient>
		<linearGradient id="g15" x2="1" gradientUnits="userSpaceOnUse" gradientTransform="matrix(308.908,-308.908,526.229,526.229,-1001.518,384.511)">
			<stop offset="0" stop-color="#075799"/>
			<stop offset=".357" stop-color="#0d83d3"/>
			<stop offset="1" stop-color="#13d6d6"/>
		</linearGradient>
		<linearGradient id="g16" x2="1" gradientUnits="userSpaceOnUse" gradientTransform="matrix(NaN,NaN,NaN,NaN,NaN,NaN)">
			<stop offset="0" stop-color="#075799"/>
			<stop offset=".357" stop-color="#0d83d3"/>
			<stop offset="1" stop-color="#13d6d6"/>
		</linearGradient>
		<linearGradient id="g17" x2="1" gradientUnits="userSpaceOnUse" gradientTransform="matrix(0,74.969,-74.969,0,-632.057,128.197)">
			<stop offset="0" stop-color="#075799"/>
			<stop offset="1" stop-color="#ffffff"/>
		</linearGradient>
		<linearGradient id="g18" x2="1" gradientUnits="userSpaceOnUse" gradientTransform="matrix(-11.263,-90.104,142.633,-17.829,-870.879,247.514)">
			<stop offset="0" stop-color="#075799"/>
			<stop offset="1" stop-color="#ffffff"/>
		</linearGradient>
		<linearGradient id="g19" x2="1" gradientUnits="userSpaceOnUse" gradientTransform="matrix(-190.965,-182.285,258.398,-270.702,152.002,839.78)">
			<stop offset="0" stop-color="#2a002a"/>
			<stop offset=".358" stop-color="#7f0078"/>
			<stop offset="1" stop-color="#ff3fea"/>
		</linearGradient>
		<linearGradient id="g20" x2="1" gradientUnits="userSpaceOnUse" gradientTransform="matrix(53.428,-95.897,30.974,17.257,-95.992,552.579)">
			<stop offset="0" stop-color="#2a002a"/>
			<stop offset="1" stop-color="#ffffff"/>
		</linearGradient>
		<linearGradient id="g21" x2="1" gradientUnits="userSpaceOnUse" gradientTransform="matrix(-200.401,-232.466,266.831,-230.026,73.795,869.155)">
			<stop offset="0" stop-color="#2a002a"/>
			<stop offset=".358" stop-color="#7f0078"/>
			<stop offset="1" stop-color="#ff3fea"/>
		</linearGradient>
		<linearGradient id="g22" x2="1" gradientUnits="userSpaceOnUse" gradientTransform="matrix(-263.901,-222.725,255.866,-303.169,171.113,349.686)">
			<stop offset="0" stop-color="#52006a"/>
			<stop offset=".48" stop-color="#8115ff"/>
			<stop offset="1" stop-color="#15ceff"/>
		</linearGradient>
		<linearGradient id="g23" x2="1" gradientUnits="userSpaceOnUse" gradientTransform="matrix(0,-122.655,122.605,0,100.755,220.666)">
			<stop offset="0" stop-color="#52006a"/>
			<stop offset=".48" stop-color="#8115ff"/>
			<stop offset="1" stop-color="#15ceff"/>
		</linearGradient>
		<linearGradient id="g24" x2="1" gradientUnits="userSpaceOnUse" gradientTransform="matrix(56.357,-107.26,276.569,145.316,84.753,194.586)">
			<stop offset="0" stop-color="#52006a"/>
			<stop offset="1" stop-color="#ffffff"/>
		</linearGradient>
		<linearGradient id="g25" x2="1" gradientUnits="userSpaceOnUse" gradientTransform="matrix(98.137,-6.682,5.179,76.065,69.899,21.732)">
			<stop offset="0" stop-color="#52006a"/>
			<stop offset="1" stop-color="#ffffff"/>
		</linearGradient>
		<linearGradient id="g26" x2="1" gradientUnits="userSpaceOnUse" gradientTransform="matrix(-323.41,-323.41,323.41,-323.41,-696.611,866.888)">
			<stop offset="0" stop-color="#52006a"/>
			<stop offset=".48" stop-color="#8115ff"/>
			<stop offset="1" stop-color="#15ceff"/>
		</linearGradient>
		<linearGradient id="g27" x2="1" gradientUnits="userSpaceOnUse" gradientTransform="matrix(-95.017,-40.893,19.718,-45.816,-712.591,605.432)">
			<stop offset="0" stop-color="#2a002a"/>
			<stop offset="1" stop-color="#ffffff"/>
		</linearGradient>
		<linearGradient id="g28" x2="1" gradientUnits="userSpaceOnUse" gradientTransform="matrix(0,-121.446,60.554,0,-868.362,676.884)">
			<stop offset="0" stop-color="#52006a"/>
			<stop offset=".48" stop-color="#8115ff"/>
			<stop offset="1" stop-color="#15ceff"/>
		</linearGradient>
		<linearGradient id="g29" x2="1" gradientUnits="userSpaceOnUse" gradientTransform="matrix(0,-121.446,60.554,0,-776.279,676.884)">
			<stop offset="0" stop-color="#52006a"/>
			<stop offset=".48" stop-color="#8115ff"/>
			<stop offset="1" stop-color="#15ceff"/>
		</linearGradient>
		<linearGradient id="g30" x2="1" gradientUnits="userSpaceOnUse" gradientTransform="matrix(0,-121.446,34.95,0,-966.392,676.884)">
			<stop offset="0" stop-color="#52006a"/>
			<stop offset=".48" stop-color="#8115ff"/>
			<stop offset="1" stop-color="#15ceff"/>
		</linearGradient>
	</defs>
	<style>
		tspan { white-space:pre } 
		.t0 { font-size: 24px;fill: #414142;font-weight: 700;font-family: "OpenSans-Bold", "Open Sans" } 
		.t1 { font-size: 14px;fill: #414142;font-weight: 300;font-family: "OpenSans-Light", "Open Sans" } 
		.s2 { fill: url(#g1) } 
		.s3 { mix-blend-mode: multiply;fill: url(#g2) } 
		.s4 { mix-blend-mode: multiply;fill: url(#g3) } 
		.s5 { fill: url(#g4) } 
		.s6 { fill: url(#g5) } 
		.s7 { fill: url(#g6) } 
		.s8 { fill: url(#g7) } 
		.s9 { fill: url(#g8) } 
		.s10 { mix-blend-mode: multiply;fill: url(#g9) } 
		.s11 { mix-blend-mode: multiply;fill: url(#g10) } 
		.s12 { mix-blend-mode: multiply;fill: url(#g11) } 
		.s13 { fill: url(#g12) } 
		.s14 { fill: url(#g13) } 
		.s15 { fill: url(#g14) } 
		.s16 { fill: url(#g15) } 
		.s17 { fill: url(#g16) } 
		.s18 { mix-blend-mode: multiply;fill: url(#g17) } 
		.s19 { mix-blend-mode: multiply;fill: url(#g18) } 
		.s20 { fill: url(#g19) } 
		.s21 { mix-blend-mode: multiply;fill: url(#g20) } 
		.s22 { fill: url(#g21) } 
		.s23 { fill: url(#g22) } 
		.s24 { fill: url(#g23) } 
		.s25 { mix-blend-mode: multiply;fill: url(#g24) } 
		.s26 { mix-blend-mode: multiply;fill: url(#g25) } 
		.s27 { fill: url(#g26) } 
		.s28 { mix-blend-mode: multiply;fill: url(#g27) } 
		.s29 { fill: url(#g28) } 
		.s30 { fill: url(#g29) } 
		.s31 { fill: url(#g30) } 
	</style>
	<g id="OBJECTS">
		<g id="&lt;Group&gt;">
			<g id="&lt;Group&gt;">
				<text id="MARKETING
" style="transform: matrix(2,0,0,2,-468.798,304.443)" >
					<tspan x="0" y="0" class="t0">MARKETING
</tspan>
				</text>
				<text id="slogan goes here
" style="transform: matrix(2,0,0,2,-429.962,343.262)" >
					<tspan x="0" y="0" class="t1">slogan goes here
</tspan>
				</text>
				<g id="&lt;Group&gt;">
					<path id="&lt;Compound Path&gt;" fill-rule="evenodd" class="s2" d="m-183.5 67.4v41.8c0 4-4.8 6-7.6 3.2l-10.4-10.4-92.3 91.5c-17.6 16.7-41.3 26.9-67.5 26.9-54.8 0-99.1-44.7-98.3-99.7 0.8-52.4 43.5-95.5 95.9-96.8 41.9-0.9 78 24.3 93.1 60.5 5.9 14 24.1 17.7 34.9 6.9l11.8-11.8-9.1-9c-2.8-2.8-0.8-7.6 3.2-7.6h41.8c2.5 0 4.5 2 4.5 4.5zm-111.6 49.8c-2.4-32.5-28.7-58.8-61.2-61.2q-0.5-0.1-1.1-0.1c-27.2-1.6-41.9 31.5-22.6 50.8l64 64c14.1-13.2 22.4-32.4 20.9-53.5z"/>
					<path id="&lt;Compound Path&gt;" class="s3" d="m-187.9 62.9h-41.9c-4 0-6 4.8-3.2 7.6l9.1 9-11.8 11.8c-10.8 10.8-29 7.1-34.9-6.9-15.1-36.2-51.2-61.4-93.1-60.5q-0.4 0.1-0.8 0.1c-36.1 1.1-53.1 45.1-27.6 70.6l11.9 12c-19.1-19.4-4.4-52.3 22.8-50.7q0.6 0.1 1.1 0.1c32.5 2.4 58.8 28.7 61.2 61.2 1.5 21.1-6.8 40.3-20.9 53.5l22.5 22.5 92-91.2 10.4 10.4c2.8 2.8 7.6 0.8 7.6-3.2v-41.8c0-2.5-2-4.5-4.4-4.5z"/>
					<path id="&lt;Path&gt;" class="s4" d="m-293.8 193.5l92.3-91.5 10.4 10.4c2.8 2.8 7.6 0.8 7.6-3.2v-41.8c0-2.5-2-4.5-4.5-4.5h-41.8c-4 0-6 4.8-3.2 7.6l9.1 9-11.8 11.8c-10.8 10.8-29 7.1-34.9-6.9 0 0 17.6 58.9-23.2 109.1z"/>
				</g>
			</g>
			<g id="&lt;Group&gt;">
				<text id="MARKETING
" style="transform: matrix(2,0,0,2,-468.798,765.208)" >
					<tspan x="0" y="0" class="t0">MARKETING
</tspan>
				</text>
				<text id="slogan goes here
" style="transform: matrix(2,0,0,2,-429.962,804.029)" >
					<tspan x="0" y="0" class="t1">slogan goes here
</tspan>
				</text>
				<g id="&lt;Group&gt;">
					<path id="&lt;Path&gt;" class="s5" d="m-388 625.4l-54.4 35.4v-101h60.4v54.6c0 4.5-2.2 8.6-6 11z"/>
					<path id="&lt;Path&gt;" class="s6" d="m-382 668.4h-60.4l42.6-16.3c8.6-3.3 17.8 3.1 17.8 12.3z"/>
					<path id="&lt;Path&gt;" class="s7" d="m-292.9 525.3v26.1c0 7.7-3.8 14.8-10.3 19l-50.1 32.6v-77.7z"/>
					<path id="&lt;Path&gt;" class="s8" d="m-353.3 634.3l29.7-11.3c14.8-5.7 30.7 5.3 30.7 21.1v24.3h-60.4z"/>
					<path id="&lt;Path&gt;" class="s9" d="m-200.6 471.9v7.7c0 15.1-7.6 29.1-20.3 37.4l-40.2 26v-71.1z"/>
					<g id="&lt;Group&gt;">
						<path id="&lt;Path&gt;" class="s10" d="m-442.4 660.8l54.4-35.3q0.1-0.1 0.1-0.1c3.7-2.5 5.9-6.6 5.9-11v-54.6h-60.4z"/>
						<path id="&lt;Path&gt;" class="s11" d="m-353.3 602.9l50.1-32.5q0 0 0.1-0.1c6.4-4.1 10.2-11.2 10.2-18.9v-26.1h-60.4z"/>
						<path id="&lt;Path&gt;" class="s12" d="m-220.9 471.9h-40.2v71.1l40.2-26c12.7-8.2 20.3-22.3 20.3-37.4v-7.7z"/>
					</g>
					<path id="&lt;Path&gt;" class="s13" d="m-261.1 599.1c29.2-11.1 60.5 10.4 60.5 41.6v27.7h-60.5z"/>
				</g>
			</g>
			<g id="&lt;Group&gt;">
				<text id="MARKETING
" style="transform: matrix(2,0,0,2,-895.361,304.443)" >
					<tspan x="0" y="0" class="t0">MARKETING
</tspan>
				</text>
				<text id="slogan goes here
" style="transform: matrix(2,0,0,2,-856.526,343.262)" >
					<tspan x="0" y="0" class="t1">slogan goes here
</tspan>
				</text>
				<g id="&lt;Group&gt;">
					<g id="&lt;Group&gt;">
						<path id="&lt;Path&gt;" class="s14" d="m-632.1 184.3v-142.5l-87 87c-9.5 9.5-24.9 9.5-34.4 0l-17.7-17.6c-9.5-9.6-24.9-9.6-34.5 0l-107.4 107.4h246.7c19 0 34.3-15.3 34.3-34.3z"/>
						<g id="&lt;Group&gt;">
							<path id="&lt;Path&gt;" class="s15" d="m-735.7 191.2l134.2-134.2-23.6-22.1-133.5 133.4z"/>
							<path id="&lt;Path&gt;" class="s16" d="m-631.4 20.1h38.2c3.1 0 5.7 2.6 5.7 5.7v38.2c0 5.1-6.2 7.6-9.7 4.1l-38.3-38.3c-3.5-3.5-1-9.7 4.1-9.7z"/>
						</g>
						<path id="&lt;Path&gt;" class="s17" d=""/>
						<path id="&lt;Path&gt;" class="s18" d="m-632.1 184.3v-96.9l-131.2 131.2h96.9c19 0 34.3-15.3 34.3-34.3z"/>
					</g>
					<path id="&lt;Path&gt;" class="s19" d="m-771.2 111.2c-9.5-9.6-24.9-9.6-34.5 0l-107.4 107.4h69.7l89.9-89.8z"/>
				</g>
			</g>
			<g id="&lt;Group&gt;">
				<text id="MARKETING
" style="transform: matrix(2,0,0,2,-24.458,765.208)" >
					<tspan x="0" y="0" class="t0">MARKETING
</tspan>
				</text>
				<text id="slogan goes here
" style="transform: matrix(2,0,0,2,14.377,804.029)" >
					<tspan x="0" y="0" class="t1">slogan goes here
</tspan>
				</text>
				<g id="&lt;Group&gt;">
					<path id="&lt;Path&gt;" class="s20" d="m212.1 501.6l-63.5 150.5c-2.1 5-5.4 9.2-9.5 12.3q-0.7 0.6-1.5 1.1c-4.9 3.2-10.6 5-16.7 5-12.4 0-23.6-7.7-28-19.4l-24.8-65.1v75.7c0 7.4-3 14.2-7.9 19.1-4.8 4.8-11.5 7.8-18.9 7.9-15 0.1-27.2-13.1-27.2-28v-137.4c0-12.2 9.9-22.1 22.1-22.1h28.7c8.9 0 17 5.4 20.4 13.6l26.1 62.4c3.4 8.1 15 8.2 18.4 0l7.7-18.1 32-75.5c4.2-10.1 14.9-15.8 25.6-13.8 14.5 2.8 22.7 18.2 17 31.8z"/>
					<path id="&lt;Path&gt;" class="s21" d="m212.1 501.6l-63.5 150.5c-2.1 5-5.4 9.2-9.5 12.3l-6.6-23.5c-7.7-27-5.9-55.9 5-81.8l32-75.5c4.2-10.1 14.9-15.8 25.6-13.8 14.5 2.8 22.7 18.2 17 31.8z"/>
					<path id="&lt;Path&gt;" class="s22" d="m173 645.2v16.5c0 14.9 12.1 27 27 27 14.9 0 27-12.1 27-27v-144.2c0-3.6-4.9-4.6-6.4-1.3l-41.1 97c-4.3 10.1-6.5 21-6.5 32z"/>
				</g>
			</g>
			<g id="&lt;Group&gt;">
				<g id="&lt;Group&gt;">
					<text id="MARKETING
" style="transform: matrix(2,0,0,2,-24.458,304.443)" >
						<tspan x="0" y="0" class="t0">MARKETING
</tspan>
					</text>
					<text id="slogan goes here
" style="transform: matrix(2,0,0,2,14.377,343.262)" >
						<tspan x="0" y="0" class="t1">slogan goes here
</tspan>
					</text>
				</g>
				<g id="&lt;Group&gt;">
					<path id="&lt;Compound Path&gt;" class="s23" d="m85.6 82.9l136.7 33.5c-1.9-54.4-46.6-98-101.5-98-56.1 0-101.5 45.5-101.5 101.6 0 55.8 44.9 101 100.6 101.5z"/>
					<g id="&lt;Group&gt;">
						<path id="&lt;Path&gt;" class="s24" d="m218.6 156.8l-37.1 22-21.9 37.1c-4.3 7.1-14.9 6.1-17.7-1.8l-41.1-116.1 116.1 41.2c7.8 2.7 8.9 13.4 1.7 17.6z"/>
						<path id="&lt;Path&gt;" class="s25" d="m100.8 98l80.7 80.8 37.1-22c7.2-4.2 6.1-14.9-1.7-17.6z"/>
					</g>
					<path id="&lt;Path&gt;" class="s26" d="m120.8 18.4q-4.8 0-9.6 0.5c-39.3 12.5-25.6 64-25.6 64l136.7 33.5c-1.9-54.4-46.6-98-101.5-98z"/>
				</g>
			</g>
			<g id="&lt;Group&gt;">
				<text id="MARKETING
" style="transform: matrix(2,0,0,2,-896.138,765.208)" >
					<tspan x="0" y="0" class="t0">MARKETING
</tspan>
				</text>
				<text id="slogan goes here
" style="transform: matrix(2,0,0,2,-857.303,804.029)" >
					<tspan x="0" y="0" class="t1">slogan goes here
</tspan>
				</text>
				<g id="&lt;Group&gt;">
					<path id="&lt;Compound Path&gt;" fill-rule="evenodd" class="s27" d="m-631.9 576.3c0 65.4-53 118.4-118.4 118.4-65.4 0-118.5-53-118.5-118.4 0-65.4 53.1-118.4 118.5-118.4 65.4 0 118.4 53 118.4 118.4zm-31.1 0c0-48.2-39.1-87.3-87.3-87.3-48.3 0-87.4 39.1-87.4 87.3 0 48.3 39.1 87.4 87.4 87.4 48.2 0 87.3-39.1 87.3-87.4z"/>
					<path id="&lt;Path&gt;" class="s28" d="m-664.5 494.8c-21.5-22.7-52-36.9-85.8-36.9-22.3 0-43.1 6.2-60.9 16.9v38.9c15.7-15.3 37.2-24.7 60.9-24.7 48.2 0 87.3 39.1 87.3 87.3 0 0 12.7-45.2-1.5-81.5z"/>
					<g id="&lt;Group&gt;">
						<path id="&lt;Path&gt;" class="s29" d="m-778.5 573.6v71.8c-15-6.1-27.5-17-35.8-30.7v-41.1z"/>
						<path id="&lt;Path&gt;" class="s30" d="m-686.4 573.6v41.1c-8.3 13.7-20.8 24.6-35.8 30.7v-71.8z"/>
					</g>
					<path id="&lt;Path&gt;" class="s31" d="m-732.4 526.5v122.2c-5.8 1.4-11.8 2.2-17.9 2.2-6.2 0-12.2-0.8-17.9-2.2v-122.2z"/>
				</g>
			</g>
		</g>
	</g>
</svg>